<?xml version="1.0" standalone="no"?>
<svg xmlns:xlink="http://www.w3.org/1999/xlink" xmlns="http://www.w3.org/2000/svg"
    viewBox="0 0 1000 562.5027423105612" preserveAspectRatio="xMaxYMax slice">
    <g transform="scale(0.8775393795796587)">
        <rect x="0" y="0" width="1139.5555555555557" height="641" fill="#ffffff" />
        <circle cx="35.61" cy="35.61" r="7.12" fill="#64af78" />
        <circle cx="106.83" cy="35.61" r="7.12" fill="#64af78" />
        <circle cx="178.05" cy="35.61" r="7.12" fill="#33a0ff" />
        <circle cx="249.28" cy="35.61" r="7.12" fill="#33a0ff" />
        <circle cx="320.5" cy="35.61" r="7.12" fill="#64af78" />
        <circle cx="391.72" cy="35.61" r="7.12" fill="#64af78" />
        <circle cx="462.94" cy="35.61" r="7.12" fill="#64af78" />
        <circle cx="534.16" cy="35.61" r="7.12" fill="#33a0ff" />
        <circle cx="605.39" cy="35.61" r="7.12" fill="#64af78" />
        <circle cx="676.61" cy="35.61" r="7.12" fill="#64af78" />
        <circle cx="747.83" cy="35.61" r="7.12" fill="#64af78" />
        <circle cx="819.05" cy="35.61" r="7.12" fill="#33a0ff" />
        <circle cx="890.28" cy="35.61" r="7.12" fill="#64af78" />
        <circle cx="961.5" cy="35.61" r="7.12" fill="#33a0ff" />
        <circle cx="1032.7199999999998" cy="35.61" r="7.12" fill="#64af78" />
        <circle cx="1103.9399999999998" cy="35.61" r="7.12" fill="#64af78" />
        <circle cx="35.61" cy="106.83" r="7.12" fill="#33a0ff" />
        <circle cx="106.83" cy="106.83" r="8.26" fill="#64af78" />
        <circle cx="178.05" cy="106.83000000000001" r="9.4" fill="#64af78" />
        <circle cx="249.28" cy="106.83000000000001" r="10.54" fill="#33a0ff" />
        <circle cx="320.5" cy="106.83000000000001" r="11.68" fill="#64af78" />
        <circle cx="391.71999999999997" cy="106.83000000000001" r="12.82" fill="#64af78" />
        <circle cx="462.94" cy="106.83000000000001" r="13.96" fill="#64af78" />
        <circle cx="534.1700000000001" cy="106.83" r="14.72" fill="#33a0ff" />
        <circle cx="605.39" cy="106.83" r="14.72" fill="#33a0ff" />
        <circle cx="676.61" cy="106.83" r="14.72" fill="#64af78" />
        <circle cx="747.83" cy="106.83000000000001" r="13.96" fill="#33a0ff" />
        <circle cx="819.0600000000001" cy="106.83000000000001" r="12.82" fill="#33a0ff" />
        <circle cx="890.28" cy="106.83000000000001" r="11.68" fill="#33a0ff" />
        <circle cx="961.5" cy="106.83000000000001" r="10.54" fill="#33a0ff" />
        <circle cx="1032.72" cy="106.83000000000001" r="9.4" fill="#64af78" />
        <circle cx="1103.94" cy="106.83" r="8.26" fill="#33a0ff" />
        <circle cx="35.61" cy="178.05" r="7.12" fill="#33a0ff" />
        <circle cx="106.83000000000001" cy="178.05" r="9.4" fill="#33a0ff" />
        <circle cx="178.06" cy="178.06" r="11.68" fill="#33a0ff" />
        <circle cx="249.28" cy="178.06" r="13.96" fill="#33a0ff" />
        <circle cx="320.5" cy="178.06" r="16.24" fill="#64af78" />
        <circle cx="391.71999999999997" cy="178.06" r="18.52" fill="#33a0ff" />
        <circle cx="462.945" cy="178.055" r="20.795" fill="#33a0ff" />
        <circle cx="534.1650000000001" cy="178.055" r="22.315" fill="#33a0ff" />
        <circle cx="605.3850000000001" cy="178.055" r="22.315" fill="#33a0ff" />
        <circle cx="676.605" cy="178.055" r="22.315" fill="#64af78" />
        <circle cx="747.8349999999999" cy="178.055" r="20.795" fill="#64af78" />
        <circle cx="819.06" cy="178.06" r="18.52" fill="#64af78" />
        <circle cx="890.28" cy="178.06" r="16.24" fill="#64af78" />
        <circle cx="961.5" cy="178.06" r="13.96" fill="#33a0ff" />
        <circle cx="1032.72" cy="178.06" r="11.68" fill="#33a0ff" />
        <circle cx="1103.94" cy="178.05" r="9.4" fill="#64af78" />
        <circle cx="35.61" cy="249.28" r="7.12" fill="#33a0ff" />
        <circle cx="106.83000000000001" cy="249.28" r="10.54" fill="#33a0ff" />
        <circle cx="178.06" cy="249.28" r="13.96" fill="#33a0ff" />
        <circle cx="249.28" cy="249.28" r="17.38" fill="#33a0ff" />
        <circle cx="320.495" cy="249.27499999999998" r="20.795" fill="#64af78" />
        <circle cx="391.72499999999997" cy="249.275" r="24.215" fill="#64af78" />
        <circle cx="462.945" cy="249.27499999999998" r="27.635" fill="#64af78" />
        <circle cx="534.165" cy="249.275" r="29.915" fill="#33a0ff" />
        <circle cx="605.395" cy="249.275" r="29.915" fill="#64af78" />
        <circle cx="676.615" cy="249.275" r="29.915" fill="#64af78" />
        <circle cx="747.835" cy="249.27499999999998" r="27.635" fill="#64af78" />
        <circle cx="819.0550000000001" cy="249.275" r="24.215" fill="#64af78" />
        <circle cx="890.275" cy="249.27499999999998" r="20.795" fill="#33a0ff" />
        <circle cx="961.5" cy="249.28" r="17.38" fill="#64af78" />
        <circle cx="1032.72" cy="249.28" r="13.96" fill="#33a0ff" />
        <circle cx="1103.94" cy="249.28" r="10.54" fill="#33a0ff" />
        <circle cx="35.61" cy="320.5" r="7.12" fill="#33a0ff" />
        <circle cx="106.835" cy="320.495" r="11.395" fill="#33a0ff" />
        <circle cx="178.05999999999997" cy="320.5" r="15.67" fill="#64af78" />
        <circle cx="249.28" cy="320.5" r="19.94" fill="#64af78" />
        <circle cx="320.49499999999995" cy="320.49499999999995" r="24.215" fill="#33a0ff" />
        <circle cx="391.72" cy="320.5" r="28.49" fill="#33a0ff" />
        <circle cx="462.94" cy="320.5" r="32.76" fill="#33a0ff" />
        <circle cx="534.17" cy="320.5" r="35.61" fill="#33a0ff" />
        <circle cx="605.39" cy="320.5" r="35.61" fill="#33a0ff" />
        <circle cx="676.61" cy="320.5" r="35.61" fill="#64af78" />
        <circle cx="747.83" cy="320.5" r="32.76" fill="#64af78" />
        <circle cx="819.0600000000001" cy="320.5" r="28.49" fill="#64af78" />
        <circle cx="890.275" cy="320.49499999999995" r="24.215" fill="#64af78" />
        <circle cx="961.5" cy="320.5" r="19.94" fill="#64af78" />
        <circle cx="1032.72" cy="320.5" r="15.67" fill="#33a0ff" />
        <circle cx="1103.945" cy="320.495" r="11.395" fill="#64af78" />
        <circle cx="35.61" cy="391.72" r="7.12" fill="#64af78" />
        <circle cx="106.835" cy="391.72499999999997" r="11.395" fill="#33a0ff" />
        <circle cx="178.05999999999997" cy="391.72" r="15.67" fill="#33a0ff" />
        <circle cx="249.28" cy="391.71999999999997" r="19.94" fill="#64af78" />
        <circle cx="320.49499999999995" cy="391.72499999999997" r="24.215" fill="#64af78" />
        <circle cx="391.72" cy="391.72" r="28.49" fill="#33a0ff" />
        <circle cx="462.94" cy="391.71999999999997" r="32.76" fill="#64af78" />
        <circle cx="534.17" cy="391.72" r="35.61" fill="#33a0ff" />
        <circle cx="605.39" cy="391.72" r="35.61" fill="#33a0ff" />
        <circle cx="676.61" cy="391.72" r="35.61" fill="#64af78" />
        <circle cx="747.83" cy="391.71999999999997" r="32.76" fill="#64af78" />
        <circle cx="819.0600000000001" cy="391.72" r="28.49" fill="#33a0ff" />
        <circle cx="890.275" cy="391.72499999999997" r="24.215" fill="#64af78" />
        <circle cx="961.5" cy="391.71999999999997" r="19.94" fill="#33a0ff" />
        <circle cx="1032.72" cy="391.72" r="15.67" fill="#64af78" />
        <circle cx="1103.945" cy="391.72499999999997" r="11.395" fill="#64af78" />
        <circle cx="35.61" cy="462.94" r="7.12" fill="#64af78" />
        <circle cx="106.83000000000001" cy="462.94" r="10.54" fill="#64af78" />
        <circle cx="178.06" cy="462.94" r="13.96" fill="#33a0ff" />
        <circle cx="249.28" cy="462.95" r="17.38" fill="#64af78" />
        <circle cx="320.495" cy="462.945" r="20.795" fill="#64af78" />
        <circle cx="391.72499999999997" cy="462.945" r="24.215" fill="#64af78" />
        <circle cx="462.945" cy="462.945" r="27.635" fill="#33a0ff" />
        <circle cx="534.165" cy="462.945" r="29.915" fill="#64af78" />
        <circle cx="605.395" cy="462.945" r="29.915" fill="#33a0ff" />
        <circle cx="676.615" cy="462.945" r="29.915" fill="#33a0ff" />
        <circle cx="747.835" cy="462.945" r="27.635" fill="#33a0ff" />
        <circle cx="819.0550000000001" cy="462.945" r="24.215" fill="#64af78" />
        <circle cx="890.275" cy="462.945" r="20.795" fill="#64af78" />
        <circle cx="961.5" cy="462.95" r="17.38" fill="#33a0ff" />
        <circle cx="1032.72" cy="462.94" r="13.96" fill="#64af78" />
        <circle cx="1103.94" cy="462.94" r="10.54" fill="#64af78" />
        <circle cx="35.61" cy="534.16" r="7.12" fill="#33a0ff" />
        <circle cx="106.83000000000001" cy="534.17" r="9.4" fill="#33a0ff" />
        <circle cx="178.06" cy="534.17" r="11.68" fill="#33a0ff" />
        <circle cx="249.28" cy="534.1700000000001" r="13.96" fill="#64af78" />
        <circle cx="320.5" cy="534.17" r="16.24" fill="#33a0ff" />
        <circle cx="391.71999999999997" cy="534.17" r="18.52" fill="#33a0ff" />
        <circle cx="462.945" cy="534.165" r="20.795" fill="#33a0ff" />
        <circle cx="534.1650000000001" cy="534.1650000000001" r="22.315" fill="#64af78" />
        <circle cx="605.3850000000001" cy="534.1650000000001" r="22.315" fill="#64af78" />
        <circle cx="676.605" cy="534.1650000000001" r="22.315" fill="#33a0ff" />
        <circle cx="747.8349999999999" cy="534.165" r="20.795" fill="#64af78" />
        <circle cx="819.06" cy="534.17" r="18.52" fill="#33a0ff" />
        <circle cx="890.28" cy="534.17" r="16.24" fill="#33a0ff" />
        <circle cx="961.5" cy="534.1700000000001" r="13.96" fill="#64af78" />
        <circle cx="1032.72" cy="534.17" r="11.68" fill="#64af78" />
        <circle cx="1103.94" cy="534.17" r="9.4" fill="#64af78" />
        <circle cx="35.61" cy="605.39" r="7.12" fill="#64af78" />
        <circle cx="106.83" cy="605.39" r="8.26" fill="#64af78" />
        <circle cx="178.05" cy="605.39" r="9.4" fill="#64af78" />
        <circle cx="249.28" cy="605.39" r="10.54" fill="#64af78" />
        <circle cx="320.5" cy="605.39" r="11.68" fill="#33a0ff" />
        <circle cx="391.71999999999997" cy="605.3900000000001" r="12.82" fill="#33a0ff" />
        <circle cx="462.94" cy="605.39" r="13.96" fill="#64af78" />
        <circle cx="534.1700000000001" cy="605.39" r="14.72" fill="#33a0ff" />
        <circle cx="605.39" cy="605.39" r="14.72" fill="#33a0ff" />
        <circle cx="676.61" cy="605.39" r="14.72" fill="#33a0ff" />
        <circle cx="747.83" cy="605.39" r="13.96" fill="#33a0ff" />
        <circle cx="819.0600000000001" cy="605.3900000000001" r="12.82" fill="#33a0ff" />
        <circle cx="890.28" cy="605.39" r="11.68" fill="#33a0ff" />
        <circle cx="961.5" cy="605.39" r="10.54" fill="#64af78" />
        <circle cx="1032.72" cy="605.39" r="9.4" fill="#64af78" />
        <circle cx="1103.94" cy="605.39" r="8.26" fill="#33a0ff" />
    </g>
</svg>